<svg width="770" height="620" viewBox="0 0 770 620" fill="none" xmlns="http://www.w3.org/2000/svg">
<path d="M832.081 544.846H0V545.262H832.081V544.846Z" fill="#EBEBEB"/>
<path d="M748.706 571.623H693.589V572.039H748.706V571.623Z" fill="#EBEBEB"/>
<path d="M551.204 576.149H536.742V576.565H551.204V576.149Z" fill="#EBEBEB"/>
<path d="M691.925 556.179H659.99V556.595H691.925V556.179Z" fill="#EBEBEB"/>
<path d="M159.177 558.975H87.3018V559.391H159.177V558.975Z" fill="#EBEBEB"/>
<path d="M184.539 558.975H174.005V559.391H184.539V558.975Z" fill="#EBEBEB"/>
<path d="M374.686 565.998H218.787V566.414H374.686V565.998Z" fill="#EBEBEB"/>
<path d="M394.406 470.625H73.0734C70.5561 470.62 68.1434 469.617 66.3649 467.836C64.5865 466.054 63.5876 463.64 63.5876 461.122V9.41915C63.6096 6.9163 64.6181 4.52316 66.3942 2.75954C68.1702 0.995931 70.5704 0.00428753 73.0734 0H394.406C396.926 0 399.343 1.00114 401.125 2.78318C402.908 4.56522 403.909 6.98218 403.909 9.50236V461.122C403.909 463.643 402.908 466.06 401.125 467.842C399.343 469.624 396.926 470.625 394.406 470.625ZM73.0734 0.332834C70.6664 0.337242 68.3595 1.29649 66.6591 3.00003C64.9587 4.70357 64.0037 7.01219 64.0037 9.41915V461.122C64.0037 463.529 64.9587 465.838 66.6591 467.542C68.3595 469.245 70.6664 470.204 73.0734 470.209H394.406C396.815 470.204 399.123 469.246 400.826 467.543C402.53 465.84 403.488 463.531 403.493 461.122V9.41915C403.488 7.01066 402.53 4.70208 400.826 2.99901C399.123 1.29595 396.815 0.337233 394.406 0.332834H73.0734Z" fill="#EBEBEB"/>
<path d="M754.381 470.625H433.031C430.513 470.62 428.098 469.618 426.317 467.837C424.536 466.056 423.533 463.641 423.529 461.122V9.41915C423.555 6.91478 424.568 4.52165 426.346 2.7585C428.125 0.995349 430.527 0.00424077 433.031 0H754.381C756.881 0.00866112 759.277 1.00224 761.049 2.76538C762.822 4.52853 763.828 6.91917 763.85 9.41915V461.122C763.85 463.637 762.854 466.049 761.079 467.83C759.304 469.611 756.895 470.616 754.381 470.625ZM433.031 0.332834C430.623 0.337233 428.314 1.29595 426.611 2.99901C424.908 4.70208 423.949 7.01066 423.945 9.41915V461.122C423.949 463.531 424.908 465.84 426.611 467.543C428.314 469.246 430.623 470.204 433.031 470.209H754.381C756.789 470.204 759.098 469.246 760.801 467.543C762.504 465.84 763.463 463.531 763.467 461.122V9.41915C763.463 7.01066 762.504 4.70208 760.801 2.99901C759.098 1.29595 756.789 0.337233 754.381 0.332834H433.031Z" fill="#EBEBEB"/>
<path d="M408.751 176.401C406.161 163.97 401.243 152.14 394.256 141.537L406.738 126.46L380.111 99.8331L365.034 112.298C354.426 105.323 342.598 100.411 330.169 97.8195L328.339 78.3821H290.546L288.715 97.8195C276.291 100.408 264.468 105.32 253.868 112.298L238.79 99.8498L212.164 126.476L224.645 141.554C217.643 152.151 212.703 163.973 210.084 176.401L190.663 178.232V215.975L210.084 217.806C212.7 230.253 217.646 242.093 224.662 252.703L212.18 267.78L238.807 294.407L253.884 281.926C264.484 288.909 276.307 293.826 288.732 296.421L290.562 315.841H328.306L330.136 296.421C342.565 293.823 354.393 288.906 365 281.926L380.078 294.407L406.704 267.78L394.223 252.703C401.21 242.106 406.128 230.282 408.718 217.855L428.155 216.025V178.282L408.751 176.401ZM360.491 197.103C360.491 207.208 357.494 217.086 351.88 225.487C346.267 233.889 338.287 240.437 328.952 244.304C319.617 248.171 309.344 249.183 299.434 247.211C289.523 245.24 280.42 240.374 273.275 233.229C266.13 226.084 261.264 216.981 259.293 207.07C257.321 197.16 258.333 186.888 262.2 177.552C266.067 168.217 272.615 160.238 281.017 154.624C289.418 149.01 299.296 146.014 309.401 146.014C316.116 146.011 322.765 147.333 328.969 149.903C335.172 152.472 340.809 156.24 345.555 160.989C350.302 165.739 354.065 171.378 356.631 177.583C359.197 183.788 360.514 190.438 360.507 197.153L360.491 197.103Z" fill="#F0F0F0"/>
<path d="M516.988 357.562L518.303 371.524H545.429L546.744 357.578C555.643 355.698 564.11 352.164 571.706 347.161L582.623 356.131L601.794 336.959L592.824 326.176C597.838 318.555 601.372 310.058 603.242 301.13L617.188 299.815V272.69L603.242 271.375C601.362 262.476 597.828 254.008 592.824 246.412L601.794 235.579L582.623 216.341L571.789 225.311C564.194 220.307 555.726 216.773 546.827 214.893L545.512 200.931H518.386L517.072 214.893C508.143 216.764 499.647 220.298 492.026 225.311L481.109 216.341L461.938 235.512L470.958 246.296C465.954 253.892 462.42 262.359 460.54 271.258L446.578 272.573V299.699L460.54 301.014C462.396 309.982 465.931 318.52 470.958 326.176L461.988 337.009L481.109 356.131L491.943 347.161C499.561 352.176 508.059 355.705 516.988 357.562ZM531.866 322.847C524.601 322.847 517.499 320.692 511.46 316.653C505.421 312.615 500.715 306.876 497.94 300.162C495.164 293.448 494.443 286.061 495.868 278.937C497.292 271.813 500.798 265.272 505.943 260.142C511.087 255.012 517.637 251.523 524.765 250.118C531.893 248.713 539.278 249.454 545.984 252.248C552.691 255.042 558.417 259.763 562.439 265.813C566.461 271.863 568.597 278.971 568.577 286.236C568.551 295.955 564.672 305.267 557.79 312.13C550.908 318.993 541.585 322.847 531.866 322.847Z" fill="#F0F0F0"/>
<path d="M373.005 547.509H405.29L406.854 530.867C417.485 528.643 427.601 524.437 436.676 518.469L449.573 529.137L472.389 506.321L461.722 493.424C467.689 484.349 471.895 474.233 474.12 463.602L490.761 462.038V429.753L474.12 428.189C471.9 417.557 467.693 407.439 461.722 398.367L472.389 385.47L449.573 362.637L436.676 373.321C427.606 367.346 417.487 363.139 406.854 360.923L405.29 344.282H373.005L371.441 360.923C360.808 363.139 350.689 367.346 341.619 373.321L328.722 362.637L305.89 385.47L316.573 398.367C310.602 407.439 306.395 417.557 304.175 428.189L287.534 429.753V462.038L304.175 463.602C306.396 474.229 310.602 484.341 316.573 493.407L305.89 506.321L328.722 529.137L341.619 518.469C350.694 524.437 360.81 528.643 371.441 530.867L373.005 547.509ZM389.147 489.63C380.504 489.63 372.055 487.067 364.869 482.265C357.682 477.463 352.081 470.638 348.773 462.652C345.466 454.667 344.6 445.88 346.286 437.403C347.973 428.926 352.135 421.139 358.246 415.028C364.358 408.916 372.145 404.754 380.622 403.068C389.099 401.381 397.886 402.247 405.871 405.554C413.856 408.862 420.682 414.463 425.483 421.65C430.285 428.836 432.848 437.285 432.848 445.929C432.831 457.507 428.219 468.606 420.025 476.787C411.832 484.968 400.726 489.563 389.147 489.563V489.63Z" fill="#F0F0F0"/>
<path d="M542.6 155.166C543.924 157.446 544.541 160.067 544.374 162.698C544.207 165.329 543.263 167.85 541.661 169.944C540.059 172.037 537.872 173.608 535.376 174.457C532.881 175.306 530.189 175.396 527.643 174.713C525.097 174.031 522.81 172.609 521.073 170.626C519.336 168.643 518.227 166.189 517.886 163.575C517.545 160.961 517.988 158.305 519.159 155.943C520.329 153.581 522.174 151.619 524.46 150.307C527.512 148.555 531.134 148.083 534.533 148.994C537.932 149.904 540.832 152.124 542.6 155.166Z" fill="#F0F0F0"/>
<path d="M527.756 160.642C528.155 161.357 528.987 161.324 529.986 161.074L528.471 158.445C527.539 159.21 527.373 159.992 527.756 160.642Z" fill="#E0E0E0"/>
<path d="M532.415 162.472L533.93 165.102C534.912 164.303 535.078 163.537 534.712 162.905C534.346 162.272 533.447 162.206 532.415 162.472Z" fill="#E0E0E0"/>
<path d="M525.426 151.988C523.48 153.108 521.91 154.781 520.915 156.794C519.92 158.806 519.545 161.069 519.836 163.295C520.127 165.522 521.072 167.611 522.552 169.301C524.031 170.99 525.978 172.202 528.146 172.784C530.315 173.367 532.607 173.293 534.734 172.572C536.86 171.851 538.725 170.516 540.092 168.735C541.459 166.954 542.268 164.807 542.415 162.567C542.562 160.326 542.042 158.093 540.919 156.148C540.176 154.857 539.185 153.724 538.004 152.816C536.823 151.908 535.474 151.241 534.035 150.855C532.596 150.469 531.095 150.37 529.617 150.564C528.14 150.759 526.716 151.242 525.426 151.988ZM534.861 166.699L535.81 168.363L534.595 169.062L533.647 167.398C532.326 168.121 530.817 168.423 529.32 168.263L529.203 166.416C530.438 166.574 531.692 166.372 532.814 165.834L531.15 162.888C529.286 163.437 527.206 163.92 526.025 161.856C525.159 160.342 525.492 158.395 527.689 156.864L526.724 155.2L527.938 154.501L528.887 156.165C529.977 155.603 531.189 155.318 532.415 155.333L532.665 157.18C531.68 157.167 530.704 157.366 529.802 157.763L531.466 160.758C533.33 160.209 535.427 159.693 536.609 161.74C537.408 163.188 537.041 165.135 534.861 166.699Z" fill="#E0E0E0"/>
<path d="M195.951 509.844C203.534 500.623 202.205 487 192.983 479.417C183.762 471.834 170.139 473.163 162.556 482.384C154.973 491.606 156.302 505.229 165.523 512.812C174.745 520.395 188.368 519.066 195.951 509.844Z" fill="#F0F0F0"/>
<path d="M177.017 490.761C176.601 492.026 177.55 492.975 178.947 493.923L180.462 489.214C178.481 488.897 177.383 489.596 177.017 490.761Z" fill="#E0E0E0"/>
<path d="M179.913 498.383L178.415 503.059C180.445 503.392 181.543 502.76 181.91 501.612C182.276 500.463 181.394 499.332 179.913 498.383Z" fill="#E0E0E0"/>
<path d="M184.905 478.496C181.429 477.38 177.7 477.319 174.189 478.322C170.679 479.325 167.545 481.347 165.184 484.132C162.823 486.917 161.34 490.339 160.925 493.966C160.509 497.593 161.178 501.262 162.848 504.509C164.518 507.756 167.113 510.434 170.306 512.205C173.498 513.977 177.144 514.761 180.783 514.46C184.421 514.159 187.889 512.785 190.747 510.513C193.604 508.241 195.724 505.172 196.837 501.695C198.328 497.036 197.909 491.976 195.672 487.626C193.435 483.276 189.562 479.993 184.905 478.496ZM177.483 505.905L176.534 508.867L174.371 508.168L175.303 505.24C172.992 504.425 170.98 502.935 169.528 500.963L171.575 498.666C172.742 500.316 174.351 501.603 176.218 502.377L177.882 497.085C175.169 495.421 172.324 493.457 173.505 489.779C174.371 487.067 177.083 485.353 181.344 486.268L182.309 483.273L184.489 483.972L183.54 486.917C185.414 487.601 187.085 488.746 188.4 490.245L186.452 492.575C185.387 491.385 184.083 490.432 182.625 489.779L180.961 495.121C183.673 496.786 186.569 498.733 185.387 502.41C184.505 505.173 181.776 506.854 177.483 505.905Z" fill="#E0E0E0"/>
<path d="M694.555 399.289C705.902 395.576 712.09 383.367 708.377 372.02C704.664 360.673 692.456 354.485 681.109 358.198C669.762 361.911 663.573 374.12 667.286 385.467C671 396.813 683.208 403.002 694.555 399.289Z" fill="#F0F0F0"/>
<path d="M682.306 376.866C682.989 378.014 684.337 377.931 685.968 377.515L683.421 373.255C681.957 374.536 681.741 375.818 682.306 376.866Z" fill="#E0E0E0"/>
<path d="M690.011 379.745L692.524 383.972C694.188 382.657 694.371 381.409 693.756 380.377C693.14 379.346 691.675 379.296 690.011 379.745Z" fill="#E0E0E0"/>
<path d="M678.395 362.787C675.261 364.657 672.752 367.414 671.184 370.71C669.617 374.005 669.061 377.692 669.588 381.303C670.116 384.914 671.702 388.288 674.146 390.998C676.591 393.708 679.784 395.633 683.322 396.528C686.86 397.424 690.584 397.25 694.023 396.029C697.462 394.809 700.463 392.596 702.645 389.67C704.826 386.745 706.092 383.238 706.281 379.593C706.47 375.949 705.575 372.33 703.707 369.194C701.199 364.99 697.124 361.954 692.377 360.752C687.631 359.551 682.602 360.283 678.395 362.787ZM694.089 386.518L695.669 389.197L693.722 390.362L692.141 387.716C689.998 388.91 687.546 389.432 685.102 389.214L684.736 386.169C686.747 386.383 688.777 386.026 690.594 385.137L687.748 380.361C684.719 381.293 681.358 382.125 679.427 378.796C677.979 376.367 678.479 373.188 681.99 370.609L680.326 367.913L682.29 366.748L683.871 369.394C685.623 368.444 687.586 367.952 689.579 367.963L690.045 370.958C688.443 370.97 686.862 371.316 685.402 371.973L688.281 376.799C691.326 375.867 694.704 374.969 696.685 378.297C698.132 380.777 697.6 383.955 694.089 386.568V386.518Z" fill="#E0E0E0"/>
<path d="M479.046 105.158C476.475 108.579 472.948 111.161 468.91 112.577C464.872 113.993 460.504 114.18 456.36 113.114C452.216 112.048 448.481 109.776 445.628 106.587C442.775 103.399 440.931 99.435 440.33 95.1983C439.73 90.9615 440.399 86.6418 442.254 82.7855C444.108 78.9292 447.065 75.7095 450.749 73.5335C454.434 71.3576 458.681 70.3232 462.954 70.5612C467.226 70.7992 471.332 72.2989 474.752 74.8705C479.337 78.3181 482.365 83.4456 483.17 89.1254C483.975 94.8052 482.492 100.572 479.046 105.158Z" fill="#F0F0F0"/>
<path d="M461.372 86.4032C460.573 87.4683 461.156 88.6831 462.154 90.0311L465.133 86.0704C463.369 85.1218 462.104 85.4214 461.372 86.4032Z" fill="#E0E0E0"/>
<path d="M461.605 94.5576L458.659 98.485C460.457 99.4669 461.722 99.2173 462.437 98.2687C463.153 97.3201 462.637 95.9222 461.605 94.5576Z" fill="#E0E0E0"/>
<path d="M472.855 77.4001C469.937 75.207 466.435 73.9282 462.79 73.7255C459.146 73.5228 455.523 74.4053 452.38 76.2615C449.237 78.1176 446.716 80.864 445.134 84.1533C443.551 87.4426 442.98 91.1272 443.492 94.7412C444.004 98.3551 445.576 101.736 448.01 104.457C450.443 107.177 453.629 109.115 457.163 110.025C460.698 110.935 464.423 110.777 467.868 109.57C471.313 108.363 474.322 106.162 476.516 103.245C477.973 101.307 479.034 99.102 479.638 96.7547C480.242 94.4073 480.378 91.9639 480.039 89.564C479.699 87.164 478.889 84.8546 477.656 82.7675C476.424 80.6804 474.792 78.8566 472.855 77.4001ZM456.829 100.898L454.965 103.394L453.134 102.03L454.998 99.5501C453.076 98.0319 451.66 95.966 450.938 93.6257L453.617 92.128C454.193 94.0549 455.293 95.7835 456.796 97.1204L460.124 92.6771C458.11 90.2308 456.063 87.435 458.46 84.3563C460.124 82.0931 463.286 81.3608 467.013 83.6241L468.894 81.1112L470.725 82.4925L468.861 84.9554C470.404 86.2189 471.606 87.8497 472.355 89.6983L469.759 91.2626C469.139 89.7877 468.221 88.4564 467.063 87.3518L463.735 91.845C465.749 94.2914 467.846 97.1038 465.532 100.166C463.718 102.479 460.59 103.178 456.829 100.898Z" fill="#E0E0E0"/>
<path d="M151.938 173.489C154.476 174.83 156.56 176.893 157.925 179.419C159.29 181.944 159.875 184.817 159.607 187.675C159.339 190.534 158.229 193.248 156.418 195.475C154.607 197.702 152.176 199.342 149.433 200.188C146.689 201.033 143.757 201.046 141.006 200.224C138.256 199.403 135.811 197.784 133.98 195.572C132.15 193.361 131.017 190.656 130.724 187.801C130.431 184.945 130.991 182.067 132.334 179.53C134.134 176.13 137.21 173.584 140.886 172.452C144.562 171.319 148.537 171.692 151.938 173.489Z" fill="#F0F0F0"/>
<path d="M141.454 187.168C142.253 187.601 142.985 187.085 143.784 186.27L140.755 184.722C140.322 185.987 140.655 186.785 141.454 187.168Z" fill="#E0E0E0"/>
<path d="M146.746 186.153L149.675 187.701C150.124 186.403 149.841 185.587 149.126 185.221C148.41 184.855 147.561 185.321 146.746 186.153Z" fill="#E0E0E0"/>
<path d="M134.198 180.512C133.046 182.678 132.564 185.137 132.811 187.578C133.057 190.019 134.023 192.332 135.585 194.224C137.147 196.115 139.235 197.501 141.585 198.206C143.935 198.911 146.441 198.902 148.786 198.182C151.131 197.462 153.21 196.062 154.759 194.159C156.308 192.257 157.258 189.938 157.489 187.496C157.719 185.053 157.22 182.597 156.054 180.439C154.888 178.28 153.108 176.516 150.939 175.369C148.037 173.835 144.644 173.515 141.505 174.479C138.367 175.443 135.739 177.612 134.198 180.512ZM151.439 188.649L153.286 189.631L152.57 190.979L150.74 190.014C149.929 191.451 148.706 192.61 147.228 193.342L145.963 191.678C147.19 191.094 148.228 190.177 148.959 189.032L145.631 187.285C144.216 188.949 142.569 190.53 140.289 189.315C138.625 188.433 137.776 186.436 138.891 183.723L137.027 182.742L137.742 181.394L139.573 182.359C140.251 181.205 141.206 180.238 142.352 179.546L143.667 181.111C142.78 181.69 142.026 182.45 141.454 183.341L144.782 185.105C146.196 183.441 147.827 181.776 150.107 183.025C151.771 183.923 152.57 185.92 151.439 188.649Z" fill="#E0E0E0"/>
<path d="M411.963 303.942C414.375 305.222 416.354 307.187 417.65 309.591C418.946 311.995 419.5 314.728 419.243 317.447C418.985 320.165 417.928 322.746 416.204 324.864C414.481 326.982 412.168 328.541 409.559 329.345C406.949 330.149 404.16 330.162 401.543 329.381C398.927 328.601 396.6 327.062 394.857 324.96C393.115 322.858 392.034 320.286 391.753 317.57C391.471 314.854 392.001 312.116 393.275 309.7C394.99 306.459 397.922 304.031 401.427 302.951C404.931 301.872 408.721 302.228 411.963 303.942Z" fill="#F0F0F0"/>
<path d="M401.895 316.99C402.66 317.389 403.359 316.89 404.108 316.124L401.312 314.643C400.896 315.841 401.213 316.623 401.895 316.99Z" fill="#E0E0E0"/>
<path d="M407.021 316.008L409.8 317.489C410.232 316.241 409.95 315.475 409.284 315.126C408.618 314.776 407.72 315.209 407.021 316.008Z" fill="#E0E0E0"/>
<path d="M395.072 310.632C393.977 312.694 393.518 315.034 393.754 317.356C393.989 319.678 394.908 321.879 396.394 323.679C397.88 325.479 399.867 326.797 402.102 327.468C404.338 328.139 406.723 328.131 408.954 327.446C411.185 326.761 413.164 325.43 414.638 323.621C416.113 321.812 417.018 319.605 417.238 317.282C417.459 314.958 416.985 312.621 415.878 310.566C414.77 308.512 413.077 306.832 411.015 305.74C408.25 304.281 405.021 303.977 402.033 304.894C399.045 305.81 396.542 307.874 395.072 310.632ZM411.514 318.387L413.278 319.319L412.596 320.617L410.848 319.685C410.078 321.047 408.919 322.147 407.52 322.847L406.305 321.3C407.476 320.747 408.468 319.876 409.167 318.787L406.022 317.123C404.674 318.654 403.126 320.218 400.93 319.053C399.266 318.204 398.55 316.307 399.615 313.728L397.834 312.796L398.517 311.498L400.181 312.43C400.823 311.328 401.733 310.406 402.827 309.75L404.075 311.231C403.206 311.771 402.457 312.485 401.878 313.328L405.057 314.992C406.405 313.478 407.953 311.864 410.133 313.012C411.813 313.877 412.562 315.791 411.514 318.387Z" fill="#E0E0E0"/>
<path d="M616.322 482.357C614.408 488.282 610.781 493.507 605.9 497.372C601.018 501.237 595.101 503.569 588.895 504.073C582.688 504.577 576.472 503.231 571.031 500.204C565.59 497.177 561.167 492.606 558.322 487.067C555.478 481.528 554.338 475.271 555.047 469.085C555.757 462.899 558.283 457.062 562.308 452.311C566.333 447.56 571.675 444.108 577.66 442.392C583.646 440.675 590.005 440.771 595.936 442.667C599.883 443.931 603.542 445.961 606.704 448.641C609.865 451.32 612.467 454.597 614.361 458.284C616.255 461.971 617.402 465.994 617.739 470.125C618.076 474.256 617.594 478.413 616.322 482.357Z" fill="#F0F0F0"/>
<path d="M583.022 465C582.44 466.847 583.821 468.229 585.852 469.61L588.048 462.737C585.169 462.287 583.572 463.303 583.022 465Z" fill="#E0E0E0"/>
<path d="M587.266 476.1L585.069 482.923C588.015 483.406 589.646 482.474 590.178 480.826C590.711 479.179 589.363 477.498 587.266 476.1Z" fill="#E0E0E0"/>
<path d="M594.522 447.127C589.456 445.504 584.024 445.42 578.91 446.885C573.797 448.35 569.233 451.299 565.796 455.358C562.359 459.417 560.202 464.403 559.599 469.688C558.995 474.973 559.973 480.317 562.407 485.046C564.842 489.775 568.624 493.676 573.275 496.256C577.926 498.836 583.238 499.978 588.539 499.539C593.84 499.1 598.891 497.098 603.054 493.788C607.218 490.478 610.306 486.008 611.929 480.943C613.008 477.579 613.415 474.036 613.124 470.516C612.833 466.996 611.852 463.567 610.235 460.426C608.618 457.286 606.398 454.495 603.702 452.212C601.006 449.93 597.886 448.202 594.522 447.127ZM583.721 487.067L582.34 491.394L579.178 490.378L580.543 486.085C577.169 484.913 574.232 482.742 572.122 479.861L575.101 476.533C576.803 478.938 579.151 480.813 581.874 481.941L584.354 474.219C580.41 471.806 576.266 468.944 577.98 463.585C579.245 459.658 583.189 457.128 589.396 458.476L590.794 454.116L593.956 455.131L592.591 459.425C595.318 460.429 597.749 462.099 599.664 464.284L596.835 467.613C595.284 465.873 593.384 464.478 591.26 463.519L588.747 471.307C592.708 473.737 596.935 476.583 595.221 481.941C593.956 485.935 589.978 488.465 583.721 487.133V487.067Z" fill="#E0E0E0"/>
<path d="M141.699 376.405C158.091 370.575 166.653 352.56 160.822 336.167C154.992 319.775 136.977 311.213 120.584 317.044C104.192 322.874 95.63 340.889 101.461 357.282C107.291 373.674 125.306 382.236 141.699 376.405Z" fill="#F0F0F0"/>
<path d="M134.098 338.84C132.434 339.789 132.434 341.736 132.966 344.132L139.29 340.654C137.51 338.341 135.662 337.991 134.098 338.84Z" fill="#E0E0E0"/>
<path d="M129.538 349.807L123.248 353.268C125.062 355.648 126.876 356.081 128.407 355.232C129.938 354.383 130.104 352.27 129.538 349.807Z" fill="#E0E0E0"/>
<path d="M154.767 333.764C152.205 329.104 148.318 325.308 143.598 322.856C138.878 320.405 133.538 319.408 128.251 319.991C122.965 320.575 117.97 322.713 113.899 326.135C109.828 329.556 106.862 334.109 105.378 339.216C103.893 344.323 103.956 349.755 105.559 354.827C107.162 359.898 110.233 364.38 114.382 367.706C118.532 371.032 123.575 373.053 128.874 373.514C134.172 373.974 139.488 372.853 144.15 370.293C150.399 366.854 155.028 361.075 157.019 354.226C159.01 347.376 158.2 340.017 154.767 333.764ZM119.404 355.398L115.426 357.578L113.762 354.666L117.706 352.503C116.072 349.326 115.434 345.73 115.876 342.185L120.336 341.802C119.911 344.722 120.333 347.702 121.55 350.389L128.64 346.495C127.442 342.018 126.393 337.092 131.336 334.38C134.947 332.383 139.557 333.282 143.135 338.524L147.145 336.327L148.809 339.239L144.782 341.403C146.072 344.01 146.69 346.899 146.579 349.807L142.203 350.306C142.259 347.975 141.834 345.658 140.955 343.5L133.782 347.444C134.98 351.92 136.112 356.896 131.169 359.609C127.591 361.606 123.015 360.657 119.37 355.398H119.404Z" fill="#E0E0E0"/>
<path d="M416.04 620C594.243 620 738.705 611.566 738.705 601.162C738.705 590.758 594.243 582.323 416.04 582.323C237.838 582.323 93.3762 590.758 93.3762 601.162C93.3762 611.566 237.838 620 416.04 620Z" fill="#F5F5F5"/>
<path d="M639.388 86.1871H632.731C614.425 86.1871 599.564 104.11 599.564 126.227C599.564 148.344 614.409 166.267 632.731 166.267H639.388C657.693 166.267 672.571 148.344 672.571 126.227C672.571 104.11 657.71 86.1871 639.388 86.1871Z" fill="#407BFF"/>
<path opacity="0.2" d="M639.388 86.1871H632.731C614.425 86.1871 599.564 104.11 599.564 126.227C599.564 148.344 614.409 166.267 632.731 166.267H639.388C657.693 166.267 672.571 148.344 672.571 126.227C672.571 104.11 657.71 86.1871 639.388 86.1871Z" fill="black"/>
<path d="M632.714 166.267C651.041 166.267 665.898 148.34 665.898 126.227C665.898 104.114 651.041 86.1871 632.714 86.1871C614.388 86.1871 599.531 104.114 599.531 126.227C599.531 148.34 614.388 166.267 632.714 166.267Z" fill="#407BFF"/>
<path opacity="0.3" d="M632.714 160.409C648.357 160.409 661.038 145.105 661.038 126.227C661.038 107.349 648.357 92.045 632.714 92.045C617.072 92.045 604.39 107.349 604.39 126.227C604.39 145.105 617.072 160.409 632.714 160.409Z" fill="white"/>
<path d="M634.744 144.649V150.424H631.25V144.782C627.377 144.605 623.685 143.094 620.799 140.505L622.712 135.297C625.059 137.492 628.055 138.864 631.25 139.207V128.923C626.507 127.525 621.431 125.595 621.431 118.522C621.431 113.263 624.593 108.687 631.25 107.904V102.097H634.744V107.805C637.879 107.988 640.891 109.081 643.415 110.95L641.667 116.142C639.615 114.676 637.241 113.723 634.744 113.363V123.764C639.487 125.162 644.646 126.959 644.646 134.115C644.646 139.307 641.451 143.834 634.744 144.649ZM631.25 122.616V113.446C630.067 113.527 628.96 114.059 628.158 114.932C627.356 115.806 626.92 116.954 626.939 118.139C626.939 120.619 628.77 121.75 631.25 122.616ZM639.188 134.514C639.188 131.985 637.307 130.803 634.744 129.938V139.041C637.856 138.475 639.188 136.728 639.188 134.514Z" fill="#407BFF"/>
<path d="M685.136 191.728H594.106C592.058 191.728 590.094 192.541 588.646 193.99C587.198 195.438 586.384 197.402 586.384 199.45V600.762H692.891V199.45C692.893 198.432 692.694 197.424 692.304 196.484C691.915 195.544 691.343 194.691 690.622 193.973C689.901 193.255 689.045 192.687 688.103 192.302C687.162 191.916 686.153 191.721 685.136 191.728Z" fill="#407BFF"/>
<path opacity="0.1" d="M685.136 191.728H594.106C592.058 191.728 590.094 192.541 588.646 193.99C587.198 195.438 586.384 197.402 586.384 199.45V600.762H692.891V199.45C692.893 198.432 692.694 197.424 692.304 196.484C691.915 195.544 691.343 194.691 690.622 193.973C689.901 193.255 689.045 192.687 688.103 192.302C687.162 191.916 686.153 191.721 685.136 191.728Z" fill="white"/>
<path opacity="0.3" d="M594.106 191.728H680.21C682.258 191.728 684.222 192.541 685.67 193.99C687.118 195.438 687.931 197.402 687.931 199.45V600.762H586.418V199.45C586.418 197.407 587.227 195.448 588.667 194.001C590.108 192.554 592.064 191.737 594.106 191.728Z" fill="white"/>
<path d="M531.433 324.944H440.337C438.301 324.962 436.354 325.783 434.92 327.229C433.486 328.675 432.682 330.629 432.682 332.666V403.343H479.944C478.745 402.147 477.795 400.725 477.15 399.16C476.504 397.594 476.176 395.916 476.183 394.223C476.149 391.351 477.1 388.555 478.878 386.299C480.655 384.043 483.152 382.464 485.952 381.825C488.75 382.464 491.245 384.044 493.02 386.3C494.794 388.556 495.742 391.353 495.704 394.223C495.714 395.915 495.388 397.592 494.745 399.158C494.102 400.723 493.156 402.146 491.96 403.343H539.188V332.666C539.191 331.648 538.991 330.64 538.602 329.7C538.213 328.76 537.641 327.907 536.92 327.189C536.199 326.471 535.343 325.903 534.401 325.518C533.46 325.132 532.451 324.937 531.433 324.944Z" fill="#407BFF"/>
<path d="M496.885 480.027H491.893C493.089 481.224 494.036 482.647 494.679 484.212C495.321 485.777 495.647 487.455 495.637 489.147C495.675 492.017 494.728 494.814 492.953 497.07C491.178 499.326 488.684 500.905 485.885 501.545C483.085 500.906 480.589 499.327 478.811 497.071C477.034 494.815 476.083 492.019 476.117 489.147C476.109 487.453 476.438 485.776 477.083 484.21C477.729 482.645 478.679 481.223 479.878 480.027H432.682V600.762H539.188V480.027H496.885Z" fill="#407BFF"/>
<path opacity="0.1" d="M531.433 324.944H440.337C438.301 324.962 436.354 325.783 434.92 327.229C433.486 328.675 432.682 330.629 432.682 332.666V403.343H479.944C478.745 402.147 477.795 400.725 477.15 399.16C476.504 397.594 476.176 395.916 476.183 394.223C476.149 391.351 477.1 388.555 478.878 386.299C480.655 384.043 483.152 382.464 485.952 381.825C488.75 382.464 491.245 384.044 493.02 386.3C494.794 388.556 495.742 391.353 495.704 394.223C495.714 395.915 495.388 397.592 494.745 399.158C494.102 400.723 493.156 402.146 491.96 403.343H539.188V332.666C539.191 331.648 538.991 330.64 538.602 329.7C538.213 328.76 537.641 327.907 536.92 327.189C536.199 326.471 535.343 325.903 534.401 325.518C533.46 325.132 532.451 324.937 531.433 324.944Z" fill="white"/>
<path opacity="0.1" d="M496.885 480.027H491.893C493.089 481.224 494.036 482.647 494.679 484.212C495.321 485.777 495.647 487.455 495.637 489.147C495.675 492.017 494.728 494.814 492.953 497.07C491.178 499.326 488.684 500.905 485.885 501.545C483.085 500.906 480.589 499.327 478.811 497.071C477.034 494.815 476.083 492.019 476.117 489.147C476.109 487.453 476.438 485.776 477.083 484.21C477.729 482.645 478.679 481.223 479.878 480.027H432.682V600.762H539.188V480.027H496.885Z" fill="white"/>
<path opacity="0.3" d="M491.893 480.027C493.089 481.224 494.036 482.647 494.679 484.212C495.321 485.777 495.647 487.455 495.637 489.147C495.698 490.794 495.426 492.437 494.837 493.977C494.249 495.517 493.356 496.923 492.212 498.11C491.068 499.297 489.696 500.241 488.179 500.886C486.661 501.531 485.029 501.863 483.381 501.863C481.732 501.863 480.1 501.531 478.583 500.886C477.066 500.241 475.694 499.297 474.55 498.11C473.406 496.923 472.513 495.517 471.924 493.977C471.336 492.437 471.064 490.794 471.124 489.147C471.117 487.453 471.445 485.776 472.091 484.21C472.736 482.645 473.686 481.223 474.885 480.027H432.682V600.762H534.196V480.027H491.893Z" fill="white"/>
<path opacity="0.3" d="M432.682 332.666V403.343H474.952C473.753 402.147 472.803 400.725 472.157 399.16C471.512 397.594 471.183 395.916 471.191 394.223C471.13 392.575 471.402 390.933 471.991 389.393C472.579 387.853 473.472 386.447 474.617 385.26C475.761 384.073 477.132 383.129 478.65 382.484C480.167 381.839 481.799 381.506 483.447 381.506C485.096 381.506 486.728 381.839 488.245 382.484C489.762 383.129 491.134 384.073 492.278 385.26C493.422 386.447 494.315 387.853 494.904 389.393C495.493 390.933 495.765 392.575 495.704 394.223C495.714 395.915 495.388 397.592 494.745 399.158C494.102 400.723 493.156 402.146 491.96 403.343H534.196V332.666C534.198 331.652 534.001 330.649 533.614 329.712C533.228 328.775 532.661 327.924 531.945 327.207C531.229 326.489 530.379 325.92 529.443 325.532C528.507 325.144 527.504 324.944 526.491 324.944H440.337C438.301 324.962 436.354 325.783 434.92 327.229C433.486 328.675 432.682 330.629 432.682 332.666Z" fill="white"/>
<path d="M302.578 170.077H260.275C258.564 170.075 256.87 170.41 255.29 171.063C253.709 171.716 252.272 172.674 251.062 173.883C249.852 175.092 248.892 176.527 248.237 178.107C247.582 179.687 247.244 181.381 247.244 183.091V225.81C247.244 229.263 248.615 232.575 251.055 235.018C253.495 237.461 256.805 238.836 260.258 238.84H277L281.426 250.49L285.836 238.84H302.578C306.031 238.836 309.341 237.461 311.781 235.018C314.221 232.575 315.592 229.263 315.592 225.81V183.058C315.583 179.612 314.208 176.311 311.768 173.877C309.329 171.444 306.024 170.077 302.578 170.077Z" fill="#407BFF"/>
<path opacity="0.4" d="M302.578 170.077H260.275C258.564 170.075 256.87 170.41 255.29 171.063C253.709 171.716 252.272 172.674 251.062 173.883C249.852 175.092 248.892 176.527 248.237 178.107C247.582 179.687 247.244 181.381 247.244 183.091V225.81C247.244 229.263 248.615 232.575 251.055 235.018C253.495 237.461 256.805 238.836 260.258 238.84H277L281.426 250.49L285.836 238.84H302.578C306.031 238.836 309.341 237.461 311.781 235.018C314.221 232.575 315.592 229.263 315.592 225.81V183.058C315.583 179.612 314.208 176.311 311.768 173.877C309.329 171.444 306.024 170.077 302.578 170.077Z" fill="white"/>
<path d="M281.637 231.109C285.524 231.081 288.662 229.195 288.645 226.898C288.628 224.6 285.463 222.76 281.576 222.789C277.688 222.817 274.55 224.703 274.567 227.001C274.584 229.298 277.749 231.138 281.637 231.109Z" fill="#263238"/>
<path opacity="0.4" d="M281.637 231.109C285.524 231.081 288.662 229.195 288.645 226.898C288.628 224.6 285.463 222.76 281.576 222.789C277.688 222.817 274.55 224.703 274.567 227.001C274.584 229.298 277.749 231.138 281.637 231.109Z" fill="white"/>
<path d="M291.644 219.237C292.018 218.872 292.239 218.378 292.26 217.855C292.26 215.609 287.434 213.812 281.526 213.861C275.618 213.911 270.842 215.759 270.859 218.022C270.887 218.541 271.113 219.029 271.491 219.387C271.387 219.611 271.33 219.855 271.325 220.102C271.337 220.359 271.401 220.611 271.512 220.842C271.624 221.074 271.781 221.281 271.974 221.45C271.857 221.677 271.795 221.927 271.791 222.182C271.807 222.44 271.874 222.692 271.988 222.923C272.103 223.155 272.262 223.361 272.456 223.53C272.325 223.758 272.256 224.016 272.257 224.279C272.274 224.536 272.344 224.786 272.461 225.015C272.578 225.244 272.741 225.446 272.939 225.61C272.804 225.838 272.73 226.095 272.723 226.359C272.723 228.24 276.733 229.688 281.643 229.688C286.552 229.688 290.529 228.024 290.513 226.226C290.507 225.96 290.426 225.7 290.28 225.477C290.478 225.315 290.641 225.113 290.755 224.883C290.87 224.654 290.935 224.402 290.945 224.146C290.948 223.881 290.873 223.62 290.729 223.397C291.039 223.165 291.259 222.832 291.35 222.455C291.441 222.079 291.398 221.682 291.228 221.334C291.606 220.976 291.832 220.488 291.861 219.969C291.846 219.711 291.772 219.461 291.644 219.237Z" fill="#263238"/>
<path d="M300.364 199.167C300.352 195.967 299.529 192.823 297.972 190.027C296.415 187.232 294.175 184.876 291.462 183.18C288.748 181.485 285.649 180.504 282.454 180.331C279.259 180.157 276.071 180.796 273.19 182.188C270.309 183.579 267.827 185.678 265.976 188.289C264.126 190.899 262.967 193.936 262.608 197.116C262.249 200.295 262.701 203.514 263.923 206.472C265.144 209.429 267.096 212.029 269.594 214.028C269.995 214.348 270.312 214.76 270.518 215.23C270.723 215.7 270.812 216.212 270.776 216.724C270.767 216.773 270.767 216.824 270.776 216.874C270.776 219.154 275.668 220.984 281.676 220.934C287.683 220.884 292.526 219.004 292.509 216.707V216.557C292.465 216.046 292.546 215.531 292.746 215.058C292.947 214.586 293.259 214.169 293.658 213.845C295.788 212.043 297.493 209.793 298.653 207.256C299.812 204.719 300.397 201.956 300.364 199.167Z" fill="#407BFF"/>
<path opacity="0.9" d="M300.364 199.167C300.352 195.967 299.529 192.823 297.972 190.027C296.415 187.232 294.175 184.876 291.462 183.18C288.748 181.485 285.649 180.504 282.454 180.331C279.259 180.157 276.071 180.796 273.19 182.188C270.309 183.579 267.827 185.678 265.976 188.289C264.126 190.899 262.967 193.936 262.608 197.116C262.249 200.295 262.701 203.514 263.923 206.472C265.144 209.429 267.096 212.029 269.594 214.028C269.995 214.348 270.312 214.76 270.518 215.23C270.723 215.7 270.812 216.212 270.776 216.724C270.767 216.773 270.767 216.824 270.776 216.874C270.776 219.154 275.668 220.984 281.676 220.934C287.683 220.884 292.526 219.004 292.509 216.707V216.557C292.465 216.046 292.546 215.531 292.746 215.058C292.947 214.586 293.259 214.169 293.658 213.845C295.788 212.043 297.493 209.793 298.653 207.256C299.812 204.719 300.397 201.956 300.364 199.167Z" fill="white"/>
<g opacity="0.2">
<path d="M277.665 218.321C277.484 218.321 277.311 218.249 277.183 218.121C277.055 217.993 276.983 217.82 276.983 217.639C276.983 211.115 271.641 206.123 271.591 206.073C271.496 205.979 271.432 205.858 271.405 205.728C271.378 205.597 271.39 205.461 271.44 205.337C271.489 205.213 271.574 205.106 271.684 205.03C271.794 204.953 271.923 204.911 272.057 204.908H275.169L276.117 202.645C276.163 202.526 276.243 202.423 276.346 202.349C276.45 202.275 276.573 202.233 276.7 202.229C276.828 202.218 276.957 202.245 277.069 202.307C277.182 202.37 277.273 202.464 277.332 202.578L279.113 205.79L280.777 202.545C280.842 202.438 280.932 202.349 281.04 202.285C281.147 202.222 281.268 202.185 281.393 202.179C281.517 202.188 281.636 202.228 281.741 202.295C281.845 202.361 281.932 202.453 281.992 202.562L283.756 206.189L285.42 202.545C285.477 202.429 285.565 202.331 285.673 202.26C285.781 202.19 285.907 202.15 286.036 202.146C286.167 202.15 286.295 202.191 286.404 202.265C286.513 202.338 286.599 202.441 286.652 202.562L287.633 204.825H290.745C290.893 204.827 291.036 204.876 291.153 204.966C291.27 205.056 291.355 205.182 291.395 205.324C291.435 205.467 291.427 205.619 291.373 205.757C291.319 205.895 291.221 206.012 291.095 206.09C286.652 208.719 285.404 217.655 285.387 217.739C285.35 217.906 285.252 218.054 285.111 218.153C284.971 218.251 284.798 218.293 284.628 218.27C284.458 218.247 284.303 218.16 284.194 218.028C284.085 217.896 284.029 217.727 284.039 217.556C284.039 217.206 285.104 209.934 288.798 206.206H287.134C287.001 206.21 286.869 206.175 286.757 206.104C286.644 206.032 286.555 205.929 286.502 205.807L285.936 204.509L284.272 208.087C284.216 208.202 284.128 208.299 284.019 208.366C283.91 208.434 283.784 208.47 283.656 208.469C283.529 208.466 283.404 208.429 283.296 208.362C283.188 208.294 283.1 208.199 283.04 208.087L281.226 204.392L279.562 207.571C279.503 207.677 279.416 207.766 279.31 207.827C279.205 207.889 279.085 207.921 278.963 207.92C278.714 207.92 278.481 207.787 278.364 207.571L276.7 204.492L276.134 205.873C276.08 205.996 275.991 206.1 275.879 206.174C275.767 206.248 275.636 206.288 275.502 206.289H273.505C276.346 209.43 278.01 213.459 278.214 217.689C278.214 217.867 278.145 218.038 278.02 218.165C277.896 218.293 277.727 218.367 277.549 218.371L277.665 218.321Z" fill="black"/>
</g>
<path d="M224.03 566.397H132.95C131.934 566.395 130.928 566.594 129.989 566.982C129.05 567.371 128.197 567.941 127.479 568.66C126.762 569.379 126.193 570.233 125.807 571.173C125.421 572.113 125.224 573.12 125.228 574.136V600.762H231.735V574.136C231.739 573.121 231.543 572.116 231.158 571.177C230.773 570.238 230.206 569.385 229.49 568.666C228.774 567.947 227.923 567.376 226.986 566.987C226.049 566.598 225.044 566.397 224.03 566.397Z" fill="#407BFF"/>
<path opacity="0.1" d="M224.03 566.397H132.95C131.934 566.395 130.928 566.594 129.989 566.982C129.05 567.371 128.197 567.941 127.479 568.66C126.762 569.379 126.193 570.233 125.807 571.173C125.421 572.113 125.224 573.12 125.228 574.136V600.762H231.735V574.136C231.739 573.121 231.543 572.116 231.158 571.177C230.773 570.238 230.206 569.385 229.49 568.666C228.774 567.947 227.923 567.376 226.986 566.987C226.049 566.598 225.044 566.397 224.03 566.397Z" fill="white"/>
<path opacity="0.3" d="M132.95 566.397H219.054C221.102 566.397 223.066 567.211 224.514 568.659C225.962 570.107 226.776 572.071 226.776 574.119V600.762H125.262V574.136C125.257 572.091 126.064 570.127 127.506 568.677C128.947 567.226 130.905 566.406 132.95 566.397Z" fill="white"/>
<path d="M377.765 484.105H286.636C285.622 484.105 284.619 484.305 283.683 484.693C282.747 485.081 281.897 485.65 281.181 486.367C280.466 487.085 279.899 487.936 279.512 488.873C279.126 489.809 278.928 490.813 278.931 491.826V600.762H385.437V491.76C385.419 489.732 384.605 487.793 383.17 486.36C381.734 484.928 379.793 484.118 377.765 484.105Z" fill="#407BFF"/>
<path opacity="0.1" d="M377.765 484.105H286.636C285.622 484.105 284.619 484.305 283.683 484.693C282.747 485.081 281.897 485.65 281.181 486.367C280.466 487.085 279.899 487.936 279.512 488.873C279.126 489.809 278.928 490.813 278.931 491.826V600.762H385.437V491.76C385.419 489.732 384.605 487.793 383.17 486.36C381.734 484.928 379.793 484.118 377.765 484.105Z" fill="white"/>
<path opacity="0.3" d="M286.635 484.105H372.772C374.82 484.105 376.784 484.918 378.232 486.366C379.681 487.814 380.494 489.779 380.494 491.826V600.762H278.98V491.76C278.998 489.735 279.81 487.798 281.242 486.366C282.673 484.934 284.611 484.122 286.635 484.105Z" fill="white"/>
<path d="M307.72 332.466C314.011 336.41 325.86 360.125 325.86 360.125L315.425 368.213L301.213 352.17L307.72 332.466Z" fill="#263238"/>
<path opacity="0.4" d="M325.86 360.125L315.425 368.213L307.571 359.459L301.213 352.17L303.543 345.197L307.804 332.466C314.011 336.41 325.86 360.125 325.86 360.125Z" fill="white"/>
<path opacity="0.2" d="M307.571 359.459L301.213 352.17L303.543 345.197C305.544 349.74 306.899 354.541 307.571 359.459Z" fill="black"/>
<path d="M295.838 409.717L252.72 403.46L257.346 356.364L301.114 361.157L295.838 409.717Z" fill="#263238"/>
<path opacity="0.3" d="M295.838 409.717L252.72 403.46L257.346 356.364L301.114 361.157L295.838 409.717Z" fill="white"/>
<path d="M234.447 479.728L268.346 482.074L267.581 468.911L230.953 472.655" fill="#FFC2BC"/>
<path d="M225.944 467.779L225.428 469.627L227.558 470.775C225.121 473.468 223.061 476.48 221.434 479.728C219.767 483.431 218.829 487.42 218.671 491.477C218.671 491.477 220.435 494.622 224.496 487.849C224.69 487.521 224.919 487.214 225.178 486.934C228.14 483.605 235.912 479.745 235.912 479.745L238.342 471.291C238.02 470.926 237.675 470.581 237.31 470.259C235.826 468.841 233.98 467.859 231.975 467.422C229.97 466.985 227.883 467.108 225.944 467.779Z" fill="#263238"/>
<path d="M237.31 470.259C238.225 471.74 231.319 475.251 228.39 478.447C225.794 481.292 223.996 484.804 225.195 486.95C228.157 483.622 237.909 479.695 237.909 479.695L239.856 472.905C239.856 472.905 237.975 470.958 237.31 470.259Z" fill="#FFC2BC"/>
<path d="M287.75 385.337L292.527 407.387C292.527 407.387 336.411 449.923 336.228 466.465C336.228 469.893 339.722 480.31 313.046 483.556C299.583 485.22 245.231 481.192 245.231 481.192V469.294C245.231 469.294 282.958 463.486 303.211 463.103L258.495 423.263L243.417 404.075L255.066 377.266L287.75 385.337Z" fill="#263238"/>
<path opacity="0.2" d="M313.046 483.556C306.117 484.041 299.164 484.107 292.227 483.755C271.658 483.14 245.231 481.192 245.231 481.192V469.294C245.231 469.294 271.525 465.25 291.994 463.686C296.055 463.386 299.866 463.17 303.211 463.103L287.983 449.54L258.495 423.263L252.72 415.907L243.417 404.075L255.066 377.266L287.8 385.37L292.577 407.42C292.577 407.42 336.461 449.956 336.277 466.498C336.161 469.893 339.722 480.311 313.046 483.556Z" fill="white"/>
<path opacity="0.2" d="M258.495 423.23L252.72 415.874L263.753 409.051C263.753 409.051 278.132 421.948 287.983 449.507L258.495 423.23Z" fill="black"/>
<path opacity="0.2" d="M292.227 483.755C271.658 483.14 245.231 481.193 245.231 481.193V469.294C245.231 469.294 271.525 465.25 291.994 463.686C293.002 470.332 293.08 477.087 292.227 483.755Z" fill="black"/>
<path d="M197.736 565.516H199.65L200.249 563.169L206.49 566.215L222.499 566.68C222.499 566.68 225.112 564.201 217.506 561.938C217.134 561.818 216.772 561.667 216.425 561.488C212.414 559.458 206.822 552.851 206.822 552.851L198.036 552.602C196.742 554.484 196.021 556.699 195.959 558.982C195.897 561.265 196.497 563.516 197.686 565.466L197.736 565.516Z" fill="#263238"/>
<path d="M197.337 553.9C198.535 552.635 203.644 558.476 207.455 560.556C210.783 562.37 214.711 563.252 216.475 561.555C212.464 559.525 206.323 551.021 206.323 551.021L199.251 550.804C199.251 550.804 197.769 553.084 197.337 553.9Z" fill="#FFC2BC"/>
<path d="M206.872 552.901L231.186 529.187L220.868 520.983L199.25 550.788" fill="#FFC2BC"/>
<path d="M285.404 472.622C282.475 452.818 276.484 427.407 271.492 407.72L269.245 382.757L245.231 378.614C245.231 378.614 233.582 399.232 238.957 418.703C243.084 433.847 252.271 452.253 264.369 473.903C237.959 494.938 216.225 522.064 203.893 540.586C204.887 542.269 206.146 543.781 207.621 545.063C209.314 546.701 211.325 547.975 213.529 548.807C232.916 530.269 259.46 507.203 278.165 489.713C284.422 484.071 286.968 479.378 285.404 472.622Z" fill="#263238"/>
<path opacity="0.2" d="M285.404 472.622C282.475 452.818 276.484 427.407 271.492 407.72L269.245 382.757L245.231 378.614C245.231 378.614 233.582 399.232 238.957 418.703C243.084 433.847 252.271 452.253 264.369 473.903C237.959 494.938 216.225 522.064 203.893 540.586C204.887 542.269 206.146 543.781 207.621 545.063C209.314 546.701 211.325 547.975 213.529 548.807C232.916 530.269 259.46 507.203 278.165 489.713C284.422 484.071 286.968 479.378 285.404 472.622Z" fill="white"/>
<path d="M307.72 332.466C307.72 332.466 304.059 362.005 287.751 385.337C287.751 385.337 252.97 380.96 245.231 378.68C250.041 364.435 252.92 354.916 254.917 328.19C255.399 321.749 261.24 318.038 267.614 319.186C273.886 319.615 280.077 320.845 286.036 322.848C293.447 325.625 300.688 328.837 307.72 332.466Z" fill="#407BFF"/>
<path opacity="0.8" d="M307.72 332.466C306.628 339.851 304.925 347.131 302.628 354.234C299.236 365.281 294.222 375.763 287.75 385.337C287.75 385.337 252.97 380.96 245.215 378.68C246.13 376.001 246.979 373.488 247.744 370.992C250.412 362.535 252.262 353.841 253.269 345.031C253.818 340.87 254.268 336.161 254.734 330.719C254.734 329.904 254.85 329.055 254.917 328.206C255.399 321.749 261.24 318.038 267.614 319.186C268.513 319.353 270.427 319.386 273.439 319.819C273.722 319.819 273.988 319.819 274.254 319.919C278.251 320.566 282.191 321.529 286.036 322.798C287.967 323.413 290.247 324.312 292.693 325.327C299.849 328.422 307.72 332.466 307.72 332.466Z" fill="white"/>
<path d="M272.74 352.253C272.307 355.931 271.808 359.842 271.159 364.002C271.059 364.601 270.992 364.934 270.992 364.934C270.327 369.161 269.511 373.621 268.546 378.247C266.409 388.636 263.715 398.902 260.475 409.001L233.748 401.346C233.748 401.346 246.546 369.727 249.641 359.293C249.995 358.089 250.284 356.866 250.506 355.631C251.638 349.64 252.071 341.752 252.736 335.079C253.302 329.421 254.051 324.611 255.532 322.548C258.228 318.804 267.181 319.22 271.658 319.586H271.824C272.573 319.586 273.189 319.735 273.605 319.802H274.254C274.602 330.642 274.096 341.493 272.74 352.253Z" fill="#263238"/>
<path d="M292.627 325.36C292.627 325.36 301.796 345.197 293.875 411.065L299.599 409.534L302.878 365.383C302.878 365.383 307.737 341.037 307.771 332.466C307.721 332.466 296.571 325.627 292.627 325.36Z" fill="#263238"/>
<path opacity="0.4" d="M272.74 352.253C272.307 355.931 271.808 359.842 271.159 364.002C271.059 364.601 270.992 364.934 270.992 364.934C270.327 369.161 269.511 373.621 268.546 378.247C266.409 388.636 263.715 398.902 260.475 409.001L233.748 401.346C233.748 401.346 246.546 369.727 249.641 359.293C249.995 358.089 250.284 356.866 250.506 355.631C251.638 349.64 252.071 341.752 252.736 335.079C253.302 329.421 254.051 324.611 255.532 322.548C258.228 318.804 267.181 319.22 271.658 319.586H271.824C272.573 319.586 273.189 319.735 273.605 319.802H274.254C274.602 330.642 274.096 341.493 272.74 352.253Z" fill="white"/>
<path opacity="0.4" d="M292.627 325.36C292.627 325.36 301.796 345.197 293.875 411.065L299.599 409.534L302.878 365.383C302.878 365.383 307.737 341.037 307.771 332.466C307.721 332.466 296.571 325.627 292.627 325.36Z" fill="white"/>
<path d="M272.923 352.802C272.224 358.078 271.508 362.288 271.259 364.085C271.159 364.684 271.092 365.017 271.092 365.017L266.965 339.489L265.734 331.634L271.658 333.032L262.938 325.36L271.658 319.636H271.824L273.605 319.852H274.254C275.702 328.189 274.287 342.468 272.923 352.802Z" fill="#263238"/>
<path d="M292.626 325.36L291.445 323.796C291.445 323.796 299.766 329.071 302.977 335.445L297.885 337.625L302.029 339.106L297.153 366.981C297.153 366.981 295.489 336.061 292.71 326.475" fill="#263238"/>
<path opacity="0.2" d="M272.923 352.802C272.224 358.078 271.508 362.288 271.259 364.085C271.159 364.684 271.092 365.017 271.092 365.017L266.965 339.489L265.734 331.634L271.658 333.032L262.938 325.36L271.658 319.636H271.824L273.605 319.852H274.254C275.702 328.189 274.287 342.468 272.923 352.802Z" fill="white"/>
<path opacity="0.2" d="M292.626 325.36L291.445 323.796C291.445 323.796 299.766 329.071 302.977 335.445L297.885 337.625L302.029 339.106L297.153 366.981C297.153 366.981 295.489 336.061 292.71 326.475" fill="white"/>
<path opacity="0.2" d="M272.923 352.802C272.224 358.078 271.508 362.288 271.259 364.085C271.159 364.684 271.092 365.017 271.092 365.017C270.427 369.244 269.611 373.704 268.646 378.331C260.824 375.918 254.684 365.267 250.606 355.715C251.738 349.724 252.171 341.836 252.836 335.162C256.747 333.498 261.157 332.533 263.753 334.696C265.102 336.089 266.225 337.683 267.082 339.422C269.329 343.553 271.259 347.847 272.856 352.27L272.923 352.802Z" fill="black"/>
<path d="M271.259 334.497C271.259 334.497 267.198 311.365 285.504 318.953C297.053 323.729 297.153 340.954 297.153 340.954L292.044 335.711C290.587 340.78 288.762 345.736 286.586 350.539C282.218 345.07 279.038 338.75 277.25 331.984L271.259 334.497Z" fill="#407BFF"/>
<path opacity="0.7" d="M271.259 334.497C271.259 334.497 267.198 311.365 285.504 318.953C297.053 323.729 297.153 340.954 297.153 340.954L292.044 335.711C290.587 340.78 288.762 345.736 286.586 350.539C282.218 345.07 279.038 338.75 277.25 331.984L271.259 334.497Z" fill="white"/>
<path d="M290.613 328.955C291.195 335.861 286.502 350.14 286.502 350.14C279.396 343.2 277.166 320.851 277.166 320.851C279.263 320.618 280.228 317.006 280.678 313.528C280.944 311.353 281.072 309.163 281.06 306.971L292.51 310.866C290.784 314.639 289.784 318.704 289.564 322.848C289.501 324.07 289.601 325.296 289.864 326.492C290.068 327.326 290.318 328.148 290.613 328.955Z" fill="#FFC2BC"/>
<path opacity="0.2" d="M292.51 310.866C290.784 314.639 289.784 318.704 289.564 322.847C285.709 320.728 282.591 317.482 280.628 313.545C280.894 311.37 281.022 309.18 281.01 306.988L292.51 310.866Z" fill="black"/>
<path d="M273.489 282.009C273.489 282.009 270.16 275.036 263.021 278.065C255.882 281.094 256.215 295.988 267.864 291.378C279.513 286.768 273.489 282.009 273.489 282.009Z" fill="#263238"/>
<path d="M277.666 281.427C277.666 281.427 273.622 279.679 269.345 284.655C265.068 289.631 267.98 295.422 269.095 294.806C270.21 294.191 278.232 284.572 277.666 281.427Z" fill="#407BFF"/>
<path d="M286.619 311.565C286.619 311.565 274.703 318.404 268.047 301.247C261.39 284.089 285.986 269.628 293.691 284.239C301.397 298.85 286.619 311.565 286.619 311.565Z" fill="#263238"/>
<path d="M272.923 297.303C276.251 307.104 277.483 311.315 283.923 315.325C293.625 321.35 304.958 315.775 304.608 305.34C304.292 295.938 298.867 281.493 287.967 279.662C285.652 279.212 283.259 279.385 281.033 280.164C278.807 280.942 276.827 282.298 275.297 284.092C273.767 285.887 272.74 288.055 272.323 290.376C271.906 292.697 272.113 295.088 272.923 297.303Z" fill="#FFC2BC"/>
<path d="M280.461 288.782C275.935 296.753 288.549 303.36 277.133 304.525C265.717 305.69 267.947 288.899 274.204 284.256C280.461 279.613 280.461 288.782 280.461 288.782Z" fill="#263238"/>
<path d="M274.188 284.372C276.601 291.029 277.965 292.693 283.806 289.914C282.698 288.666 282.056 287.072 281.992 285.404C282.83 286.992 284.258 288.188 285.97 288.732C287.502 287.794 289.131 287.024 290.829 286.436C290.364 285.528 290.113 284.526 290.097 283.507C290.74 284.58 291.683 285.442 292.809 285.986C294.692 285.732 296.603 285.789 298.468 286.153C297.386 278.864 283.989 272.923 274.188 284.372Z" fill="#263238"/>
<path d="M289.048 296.687C289.298 297.519 289.93 298.101 290.48 297.968C291.029 297.835 291.262 297.086 291.012 296.304C290.763 295.522 290.13 294.89 289.581 295.006C289.032 295.123 288.815 295.838 289.048 296.687Z" fill="#263238"/>
<path d="M299.267 294.557C299.5 295.389 300.149 295.971 300.681 295.838C301.214 295.705 301.463 294.956 301.214 294.174C300.964 293.392 300.332 292.759 299.799 292.876C299.267 292.992 299.017 293.741 299.267 294.557Z" fill="#263238"/>
<path d="M299.549 292.893L301.363 291.877C301.363 291.877 300.831 293.725 299.549 292.893Z" fill="#263238"/>
<path d="M296.837 296.57C298.131 298.323 299.647 299.901 301.347 301.263C301.005 301.66 300.577 301.975 300.095 302.182C299.614 302.39 299.091 302.485 298.568 302.461L296.837 296.57Z" fill="#D4827D"/>
<path d="M294.723 306.605C295.199 306.582 295.672 306.521 296.138 306.422C296.169 306.415 296.199 306.401 296.224 306.381C296.25 306.362 296.271 306.337 296.287 306.309C296.302 306.281 296.312 306.25 296.315 306.218C296.318 306.186 296.315 306.153 296.304 306.123C296.299 306.088 296.286 306.054 296.266 306.025C296.247 305.995 296.221 305.97 296.191 305.952C296.161 305.933 296.128 305.92 296.093 305.915C296.058 305.911 296.022 305.913 295.988 305.923C294.933 306.156 293.839 306.152 292.785 305.91C291.732 305.668 290.745 305.195 289.897 304.525C289.877 304.493 289.85 304.465 289.818 304.445C289.785 304.424 289.749 304.412 289.711 304.408C289.673 304.403 289.634 304.408 289.599 304.421C289.563 304.435 289.53 304.456 289.504 304.484C289.478 304.511 289.458 304.545 289.446 304.581C289.435 304.618 289.432 304.656 289.438 304.694C289.444 304.732 289.458 304.768 289.48 304.799C289.502 304.83 289.531 304.856 289.565 304.875C291.014 306.064 292.85 306.68 294.723 306.605Z" fill="#263238"/>
<path d="M273.272 307.171C273.814 308 274.524 308.707 275.355 309.245C276.186 309.784 277.12 310.143 278.098 310.3C280.545 310.583 281.16 307.754 279.996 305.174C278.947 302.861 276.418 299.932 274.204 300.847C271.991 301.763 271.758 304.974 273.272 307.171Z" fill="#FFC2BC"/>
<path d="M285.521 292.51C285.587 292.502 285.651 292.481 285.709 292.446C285.766 292.412 285.816 292.365 285.853 292.31C286.193 291.804 286.651 291.388 287.187 291.098C287.724 290.808 288.322 290.653 288.932 290.646C288.996 290.651 289.06 290.642 289.121 290.621C289.181 290.599 289.236 290.566 289.283 290.522C289.33 290.478 289.367 290.425 289.393 290.366C289.418 290.308 289.432 290.244 289.431 290.18C289.424 290.044 289.368 289.915 289.273 289.817C289.178 289.72 289.051 289.659 288.915 289.647C288.135 289.648 287.368 289.843 286.682 290.215C285.996 290.587 285.414 291.124 284.988 291.778C284.951 291.835 284.927 291.9 284.915 291.967C284.904 292.035 284.906 292.104 284.922 292.17C284.937 292.237 284.966 292.3 285.006 292.355C285.046 292.41 285.096 292.457 285.154 292.493C285.272 292.537 285.4 292.543 285.521 292.51Z" fill="#263238"/>
<path d="M300.864 289.348C300.99 289.343 301.11 289.29 301.197 289.198C301.279 289.091 301.316 288.957 301.301 288.823C301.285 288.69 301.218 288.567 301.114 288.482C300.508 287.931 299.782 287.528 298.993 287.305C298.205 287.083 297.375 287.047 296.57 287.201C296.507 287.218 296.448 287.248 296.398 287.288C296.347 287.329 296.305 287.381 296.275 287.439C296.246 287.497 296.228 287.56 296.225 287.625C296.221 287.691 296.231 287.756 296.254 287.817C296.296 287.944 296.385 288.05 296.502 288.115C296.619 288.18 296.757 288.198 296.887 288.166C297.526 288.062 298.181 288.102 298.803 288.283C299.425 288.465 299.998 288.783 300.481 289.215C300.532 289.262 300.593 289.299 300.658 289.322C300.724 289.345 300.794 289.354 300.864 289.348Z" fill="#263238"/>
<path d="M289.365 295.056L291.179 294.041C291.179 294.041 290.613 295.822 289.365 295.056Z" fill="#263238"/>
<path d="M371.974 451.604L401.33 380.76L362.921 364.851C364.848 364.022 366.547 362.741 367.874 361.116C369.201 359.49 370.116 357.569 370.543 355.515C371.096 353.131 370.928 350.637 370.06 348.349C369.192 346.061 367.662 344.084 365.667 342.668C364.316 341.753 362.789 341.133 361.184 340.846C359.578 340.56 357.931 340.613 356.347 341.003C353.754 340.918 351.198 341.635 349.027 343.055C346.856 344.476 345.176 346.531 344.216 348.942C343.176 351.443 342.944 354.206 343.55 356.846L309.052 342.551L305.724 342.867L276.368 413.694L314.777 429.62C312.848 430.445 311.147 431.723 309.817 433.345C308.487 434.967 307.568 436.886 307.138 438.939C306.586 441.325 306.757 443.82 307.628 446.108C308.499 448.396 310.032 450.373 312.031 451.787C313.381 452.701 314.908 453.321 316.514 453.608C318.119 453.895 319.767 453.841 321.35 453.451C323.943 453.536 326.499 452.819 328.67 451.399C330.841 449.978 332.521 447.923 333.482 445.513C334.521 443.011 334.754 440.248 334.147 437.608L368.645 451.903L371.974 451.604Z" fill="#407BFF"/>
<path opacity="0.3" d="M371.974 451.604L401.33 380.76L362.921 364.851C364.848 364.022 366.547 362.741 367.874 361.116C369.201 359.49 370.116 357.569 370.543 355.515C371.096 353.131 370.928 350.637 370.06 348.349C369.192 346.061 367.662 344.084 365.667 342.668C364.316 341.753 362.789 341.133 361.184 340.846C359.578 340.56 357.931 340.613 356.347 341.003C353.754 340.918 351.198 341.635 349.027 343.055C346.856 344.476 345.176 346.531 344.216 348.942C343.176 351.443 342.944 354.206 343.55 356.846L309.052 342.551L305.724 342.867L276.368 413.694L314.777 429.62C312.848 430.445 311.147 431.723 309.817 433.345C308.487 434.967 307.568 436.886 307.138 438.939C306.586 441.325 306.757 443.82 307.628 446.108C308.499 448.396 310.032 450.373 312.031 451.787C313.381 452.701 314.908 453.321 316.514 453.608C318.119 453.895 319.767 453.841 321.35 453.451C323.943 453.536 326.499 452.819 328.67 451.399C330.841 449.978 332.521 447.923 333.482 445.513C334.521 443.011 334.754 440.248 334.147 437.608L368.645 451.903L371.974 451.604Z" fill="black"/>
<path d="M401.33 380.76L362.921 364.851C364.848 364.022 366.547 362.741 367.874 361.116C369.201 359.49 370.117 357.569 370.543 355.515C371.345 352.5 370.944 349.292 369.424 346.567C367.903 343.843 365.383 341.817 362.395 340.918C359.408 340.019 356.188 340.317 353.416 341.749C350.645 343.181 348.539 345.635 347.544 348.592C346.219 351.737 346.189 355.277 347.461 358.444L309.052 342.518L279.696 413.345L318.105 429.354C316.174 430.18 314.472 431.461 313.142 433.086C311.812 434.711 310.894 436.634 310.466 438.69C309.741 441.682 310.19 444.84 311.722 447.511C313.254 450.182 315.752 452.165 318.701 453.05C321.651 453.935 324.827 453.655 327.577 452.269C330.327 450.882 332.44 448.494 333.482 445.596C334.779 442.446 334.779 438.911 333.482 435.761L371.907 451.687L401.33 380.76Z" fill="#407BFF"/>
<path d="M366.532 368.529L363.037 365.034C362.885 364.889 362.763 364.715 362.68 364.522C362.597 364.329 362.554 364.121 362.554 363.911C362.554 363.7 362.597 363.492 362.68 363.299C362.763 363.106 362.885 362.932 363.037 362.787L364.701 361.356C365.038 361.05 365.435 360.818 365.867 360.676C366.3 360.534 366.757 360.485 367.21 360.532C367.662 360.579 368.1 360.721 368.493 360.949C368.887 361.178 369.228 361.486 369.494 361.855L373.688 367.63L374.17 369.294L371.608 368.229L368.446 368.978C368.115 369.07 367.766 369.077 367.431 368.998C367.097 368.92 366.788 368.758 366.532 368.529Z" fill="#FFC2BC"/>
<path d="M264.069 335.029C266.699 344.881 268.696 355.532 273.289 364.618C273.289 364.768 273.788 365.234 274.953 365.716C279.796 367.647 286.519 367.78 292.077 367.93C298.401 368.013 304.891 367.647 311.198 367.231C312.001 367.171 312.796 367.414 313.429 367.91C314.062 368.407 314.487 369.122 314.62 369.915C314.754 370.709 314.586 371.524 314.15 372.2C313.714 372.876 313.041 373.365 312.263 373.571C305.805 375.317 299.224 376.574 292.576 377.332C285.254 378.048 278.631 378.58 271.059 376.367C267.906 375.426 265.17 373.435 263.304 370.725L262.422 369.411C258.311 362.521 256.065 355.082 253.818 347.594C252.953 344.265 252.154 341.186 251.438 337.808C251.256 336.976 251.239 336.115 251.389 335.276C251.539 334.437 251.853 333.636 252.313 332.918C253.241 331.468 254.708 330.447 256.389 330.078C257.222 329.896 258.082 329.879 258.921 330.029C259.76 330.179 260.562 330.493 261.28 330.953C262.729 331.881 263.751 333.348 264.119 335.029H264.069Z" fill="#EBC0BB"/>
<path d="M309.202 367.78L316.857 362.704L318.288 373.355C316.494 373.847 314.611 373.928 312.781 373.591C310.951 373.254 309.221 372.507 307.72 371.408L309.202 367.78Z" fill="#FFC2BC"/>
<path d="M325.86 363.453L325.444 371.574L318.288 373.322L316.857 362.671L325.86 363.453Z" fill="#FFC2BC"/>
<path d="M257.729 320.85C248.51 324.179 249.309 337.292 254.068 353.102C258.828 368.911 266.233 378.697 273.456 379.728L280.012 366.815C277.995 365.709 276.108 364.38 274.387 362.854C271.692 359.526 262.938 326.542 262.938 326.542L257.729 320.85Z" fill="#263238"/>
<path opacity="0.4" d="M257.729 320.85C248.51 324.179 249.309 337.292 254.068 353.102C258.828 368.911 266.233 378.697 273.456 379.728L280.012 366.815C277.995 365.709 276.108 364.38 274.387 362.854C271.692 359.526 262.938 326.542 262.938 326.542L257.729 320.85Z" fill="white"/>
<path d="M280.877 366.049L277.166 364.219L266.399 379.662L274.387 380.411L280.877 366.049Z" fill="#263238"/>
<path opacity="0.2" d="M280.877 366.049L277.166 364.219L266.399 379.662L274.387 380.411L280.877 366.049Z" fill="white"/>
</svg>
